<svg width="390" height="404" viewBox="0 0 390 404" fill="none" xmlns="http://www.w3.org/2000/svg">
<g clip-path="url(#clip0_28_27)">
<path d="M54.6801 342.673C46.3307 301.142 60.0398 289.857 62.3291 269.172C64.6454 248.487 36.1499 236.852 49.3473 202.269C62.5715 167.66 97.7465 176.737 108.735 158.691C119.697 140.646 108.87 130.573 136.18 114.951C153.956 104.825 159.208 94.6707 160.717 88.7992C162.144 83.1971 164.918 77.999 169.066 74.0398C187.892 55.9136 206.692 73.528 215.768 92.2467C226.084 113.551 243.644 105.74 265.191 123.005C286.738 140.269 277.715 170.326 297.161 178.326C316.607 186.325 319.893 212.908 312.54 229.176C305.16 245.444 316.822 254.358 331.501 274.531C341.305 287.98 340.847 310.883 330.127 343.238" stroke="#E5C2A5" stroke-width="0.808"/>
<path d="M48.0275 343.238C39.0318 301.276 45.3072 284.685 47.7851 263.758C50.2899 242.858 24.9456 229.176 41.2672 195.132C55.892 164.59 88.643 170.865 100.467 152.631C112.317 134.397 100.628 124.217 130.12 108.434C149.27 98.172 154.953 87.9104 156.569 82.012C158.131 76.3291 161.121 71.104 165.565 67.091C185.872 48.7763 209.574 60.3576 219.35 79.2648C230.501 100.785 246.068 99.1147 269.285 116.567C292.528 134.02 282.778 164.401 303.786 172.454C324.767 180.534 328.296 207.414 320.377 223.87C312.432 240.299 324.983 249.295 340.847 269.683C351.405 283.276 350.417 307.974 337.884 343.777" stroke="#E5C2A5" stroke-width="0.808"/>
<path d="M217.25 103.074C227.35 124.378 244.506 116.567 265.541 133.832C286.576 151.096 277.742 181.154 296.757 189.153C315.745 197.125 318.95 223.735 311.759 240.003C304.567 256.271 315.96 265.186 330.289 285.359C339.859 298.807 339.859 317.912 330.289 342.673H61.2517C53.1178 301.142 70.8669 299.93 73.1293 279.245C75.3917 258.56 45.6573 242.939 58.5583 208.329C71.4325 173.72 101.975 187.564 112.694 169.518C123.414 151.473 112.829 141.4 139.52 125.779C156.865 115.625 162.009 105.498 163.491 99.6264C164.891 94.0242 167.611 88.8261 171.624 84.8669C190.02 66.7408 208.388 84.3552 217.25 103.074V103.074Z" fill="#F7E4D2"/>
<path d="M216.334 112.016C225.976 132.377 242.378 124.917 262.498 141.427C282.644 157.937 274.187 186.702 292.367 194.351C310.547 201.973 313.617 227.425 306.722 242.993C299.854 258.533 310.735 267.071 324.444 286.355C333.602 299.229 333.602 317.508 324.444 341.192H67.1232C59.3395 301.465 76.3075 300.307 78.4622 280.511C80.6438 260.715 52.2022 245.767 64.5376 212.666C76.8731 179.565 106.069 192.816 116.33 175.551C126.592 158.314 116.465 148.672 141.998 133.724C158.589 124.028 163.491 114.305 164.891 108.703C166.238 103.343 168.824 98.3875 172.702 94.5899C190.289 77.2448 207.85 94.1051 216.334 112.016V112.016Z" stroke="white" stroke-width="0.808"/>
<path d="M272.894 197.367C272.274 198.202 268.773 197.206 266.699 195.563C266.699 198.256 265.083 201.865 264.006 201.785C262.821 201.704 260.693 199.845 261.043 198.041C261.366 196.236 263.252 195.078 263.063 194.486C262.902 193.893 260.37 194.405 258.673 193.812C256.976 193.22 254.175 189.826 257.488 189.126C259.679 188.641 261.681 189.126 263.494 190.58C263.656 190.67 263.862 190.805 264.114 190.984C262.956 188.857 260.02 187.429 259.966 187.429C259.831 187.348 259.777 187.16 259.831 187.025C259.912 186.863 260.074 186.81 260.235 186.89C260.343 186.944 262.417 187.941 263.844 189.557C263.252 187.429 263.629 185.032 263.656 184.897C263.683 184.736 263.844 184.628 264.006 184.655C264.167 184.709 264.275 184.843 264.248 185.005C264.248 185.032 263.764 188.022 264.652 190.176C264.688 189.961 264.715 189.79 264.733 189.665C264.823 187.348 265.766 185.508 267.561 184.143C270.254 182.096 271.009 186.433 270.335 188.102C269.689 189.772 267.642 191.361 267.965 191.9C268.315 192.412 270.389 191.738 271.978 192.654C273.567 193.597 273.594 196.425 272.894 197.367V197.367Z" fill="#DBA291"/>
<path d="M93.9757 223.735C93.1139 223.816 91.8211 221.123 91.7133 218.941C90.0704 220.422 86.9461 221.392 86.4075 220.692C85.8149 219.911 85.8149 217.594 87.1077 216.813C88.4005 216.032 90.1243 216.571 90.3936 216.14C90.6629 215.709 88.9662 214.416 88.4006 213.043C87.8619 211.696 88.4275 208.114 90.6629 209.757C92.1533 210.87 92.9433 212.378 93.0331 214.282C93.069 214.425 93.0959 214.614 93.1139 214.847C93.7872 212.989 93.06 210.403 93.06 210.376C93.0061 210.242 93.0869 210.107 93.2216 210.08C93.3563 210.053 93.491 210.107 93.5179 210.242C93.5448 210.349 94.0565 212.154 93.8411 213.931C94.8376 212.396 96.5075 211.346 96.6152 211.292C96.723 211.211 96.8576 211.238 96.9384 211.373C97.0192 211.481 96.9653 211.642 96.8576 211.696C96.8307 211.723 94.7299 213.043 93.9219 214.766C94.0655 214.659 94.1822 214.578 94.272 214.524C95.7444 213.321 97.3873 212.899 99.2008 213.258C101.921 213.824 99.6587 216.625 98.2851 217.137C96.8845 217.648 94.7837 217.244 94.6491 217.729C94.5413 218.241 96.0765 219.157 96.3728 220.638C96.6691 222.119 94.9453 223.654 93.9757 223.735V223.735Z" fill="#DBA291"/>
<path d="M184.822 119.907C183.96 119.988 182.667 117.268 182.559 115.113C180.89 116.594 177.792 117.537 177.254 116.837C176.661 116.083 176.661 113.739 177.954 112.958C179.247 112.204 180.97 112.716 181.24 112.285C181.509 111.881 179.812 110.588 179.247 109.215C178.708 107.841 179.247 104.259 181.509 105.929C182.999 107.024 183.789 108.523 183.879 110.427C183.915 110.588 183.942 110.786 183.96 111.019C184.633 109.161 183.906 106.575 183.906 106.548C183.852 106.414 183.933 106.279 184.068 106.225C184.202 106.198 184.337 106.279 184.364 106.414C184.391 106.494 184.903 108.326 184.687 110.077C185.684 108.541 187.354 107.491 187.461 107.437C187.569 107.383 187.704 107.41 187.784 107.518C187.865 107.626 187.811 107.787 187.704 107.868C187.677 107.868 185.576 109.188 184.768 110.911C184.912 110.822 185.028 110.75 185.118 110.696C186.59 109.475 188.233 109.053 190.047 109.43C192.767 109.969 190.505 112.797 189.131 113.309C187.731 113.793 185.63 113.416 185.495 113.901C185.36 114.386 186.923 115.302 187.219 116.783C187.515 118.264 185.791 119.826 184.822 119.907Z" fill="#DBA291"/>
<path d="M145.984 156.914C145.688 157.291 145.149 157.371 144.772 157.075C144.368 156.806 144.287 156.267 144.584 155.863C144.853 155.486 145.418 155.405 145.796 155.702C146.173 155.971 146.253 156.51 145.984 156.914Z" fill="white"/>
<path d="M148.219 153.197C147.923 153.601 147.384 153.682 147.007 153.385C146.603 153.089 146.523 152.55 146.819 152.173C147.115 151.769 147.654 151.689 148.031 151.985C148.435 152.281 148.516 152.82 148.219 153.197Z" fill="white"/>
<path d="M150.832 159.041C150.536 159.418 149.997 159.499 149.62 159.23C149.216 158.934 149.135 158.395 149.431 158.018C149.701 157.614 150.266 157.533 150.643 157.829C151.02 158.126 151.101 158.664 150.832 159.041Z" fill="white"/>
<path d="M262.902 167.094C262.632 167.472 262.094 167.552 261.69 167.283C261.312 166.987 261.232 166.448 261.528 166.044C261.797 165.667 262.336 165.586 262.74 165.882C263.117 166.152 263.198 166.717 262.902 167.094Z" fill="white"/>
<path d="M265.164 163.378C264.868 163.782 264.329 163.862 263.925 163.566C263.548 163.297 263.467 162.731 263.763 162.354C264.033 161.977 264.598 161.896 264.975 162.166C265.353 162.462 265.433 163.001 265.164 163.378V163.378Z" fill="white"/>
<path d="M267.75 169.222C267.48 169.626 266.942 169.707 266.538 169.411C266.161 169.114 266.08 168.576 266.376 168.199C266.645 167.822 267.184 167.741 267.588 168.01C267.965 168.306 268.046 168.845 267.75 169.222Z" fill="white"/>
<path d="M221.667 131.839C221.37 132.216 220.832 132.297 220.455 132C220.078 131.731 219.997 131.192 220.266 130.788C220.562 130.411 221.101 130.33 221.478 130.627C221.882 130.896 221.963 131.435 221.667 131.839Z" fill="white"/>
<path d="M223.902 128.122C223.633 128.526 223.067 128.607 222.69 128.31C222.313 128.014 222.232 127.475 222.502 127.098C222.798 126.721 223.337 126.641 223.741 126.91C224.118 127.206 224.198 127.745 223.902 128.122Z" fill="white"/>
<path d="M226.515 133.966C226.218 134.37 225.68 134.451 225.303 134.155C224.926 133.859 224.845 133.32 225.114 132.943C225.41 132.539 225.949 132.458 226.326 132.754C226.73 133.051 226.811 133.589 226.515 133.966Z" fill="white"/>
<path d="M232.898 182.446C232.521 182.123 232.494 181.585 232.79 181.207C233.086 180.83 233.652 180.777 234.002 181.1C234.379 181.396 234.433 181.962 234.137 182.312C233.814 182.689 233.275 182.743 232.898 182.446Z" fill="white"/>
<path d="M236.48 184.87C236.103 184.574 236.049 184.009 236.372 183.658C236.669 183.281 237.207 183.227 237.584 183.524C237.961 183.847 238.015 184.386 237.692 184.763C237.396 185.113 236.857 185.167 236.48 184.87Z" fill="white"/>
<path d="M230.528 187.16C230.151 186.863 230.097 186.325 230.393 185.948C230.716 185.571 231.255 185.517 231.632 185.84C231.982 186.136 232.036 186.675 231.74 187.052C231.444 187.429 230.878 187.483 230.528 187.16Z" fill="white"/>
<path d="M107.819 200.68C107.819 201.3 107.308 201.785 106.715 201.785C106.096 201.785 105.611 201.3 105.611 200.68C105.611 200.088 106.096 199.576 106.715 199.576C107.308 199.576 107.819 200.088 107.819 200.68Z" fill="white"/>
<path d="M255.845 143.716C255.845 144.47 255.226 145.09 254.471 145.09C253.717 145.09 253.098 144.47 253.098 143.716C253.098 142.962 253.717 142.343 254.471 142.343C255.226 142.343 255.845 142.962 255.845 143.716Z" fill="white"/>
<path d="M161.04 186.486C161.04 187.268 160.42 187.86 159.666 187.86C158.912 187.86 158.292 187.268 158.292 186.486C158.292 185.732 158.912 185.14 159.666 185.14C160.42 185.14 161.04 185.732 161.04 186.486Z" fill="white"/>
<path d="M187.246 96.8523C187.246 97.3101 186.896 97.6872 186.411 97.6872C185.953 97.6872 185.576 97.3101 185.576 96.8523C185.576 96.3944 185.953 96.0173 186.411 96.0173C186.896 96.0173 187.246 96.3944 187.246 96.8523Z" fill="white"/>
<path d="M251.293 219.857C251.293 220.53 250.728 221.096 250.028 221.096C249.354 221.096 248.789 220.53 248.789 219.857C248.789 219.157 249.354 218.591 250.028 218.591C250.728 218.591 251.293 219.157 251.293 219.857Z" fill="white"/>
<path d="M169.685 125.159C169.685 125.833 169.12 126.398 168.446 126.398C167.746 126.398 167.181 125.833 167.181 125.159C167.181 124.459 167.746 123.92 168.446 123.92C169.12 123.92 169.685 124.459 169.685 125.159Z" fill="white"/>
<path d="M32.5408 333.65H364.683C367.134 333.65 367.807 337.017 365.545 337.933C343.325 347.063 284.394 367.748 201.844 370.118C125.057 372.299 60.9016 352.315 31.1672 341.03C27.208 339.522 28.2853 333.65 32.5408 333.65V333.65Z" fill="#F7E4D2"/>
<path d="M137.392 294.489L134.51 295.189C126.556 294.776 121.169 293.744 118.35 292.092C114.149 289.614 112.21 282.396 108.681 279.972C105.126 277.548 97.8541 281.642 91.6595 279.972C85.4917 278.275 85.8688 271.111 80.8861 267.152C75.8765 263.193 68.012 266.425 61.3864 263.139C54.7608 259.88 58.316 251.8 45.8728 248.81C37.0656 246.682 33.4835 242.346 37.2003 238.926C37.2003 238.926 44.7955 229.714 54.3299 230.792C63.8912 231.869 68.5776 233.512 75.1763 229.041C81.8019 224.543 86.7307 227.506 92.2789 231.061C97.8272 234.616 103.995 228.799 113.879 231.95C123.791 235.101 125.999 241.781 127.373 245.039C128.747 248.325 142.51 250.938 143.237 264.081C143.722 272.826 141.773 282.962 137.392 294.489V294.489Z" fill="#B9BC7E"/>
<path d="M135.453 290.368C133.37 272.503 126.188 259.503 113.906 251.369C95.484 239.195 65.2917 238.899 56.1344 238.387C50.0295 238.046 46.9771 237.875 46.9771 237.875C71.6121 236.313 90.0435 238.019 102.271 242.993C127.427 253.227 134.618 269.953 135.453 290.368Z" fill="#FFFBF4"/>
<path d="M121.933 262.169C111.662 252.994 105.755 244.591 104.21 236.959C101.894 225.513 108.681 221.23 104.103 215.44C99.524 209.649 101.571 199.226 106.5 196.586C111.455 193.947 113.475 188.183 113.96 180.211C114.418 172.266 120.505 169.303 122.39 171.511C127.562 177.598 124.976 183.82 132.921 187.671C140.84 191.55 143.641 199.576 141.648 206.121C139.655 212.693 148.408 214.793 154.199 224.813C159.962 234.832 155.788 243.208 153.337 249.483C150.886 255.786 157.673 263.354 155.195 270.599C153.561 275.429 147.061 281.821 135.695 289.776C130.201 287.729 125.613 278.527 121.933 262.169V262.169Z" fill="#CFC293"/>
<path d="M139.089 240.084C142.16 254.233 142.51 268.858 140.14 283.958C139.457 263.166 137.069 244.339 132.975 227.479C128.899 210.637 125.165 195.671 121.771 182.581C122.148 185.867 134.484 218.86 139.089 240.084V240.084Z" fill="#FFFBF4"/>
<path d="M124.006 272.404C121.906 261.63 132.49 256.675 132.921 253.739C133.379 250.83 133.81 244.959 141.163 240.38C148.543 235.774 154.71 239.249 158.481 235.209C162.225 231.196 165.618 227.775 171.894 230.065C178.169 232.327 181.644 230.038 189.131 227.183C196.646 224.355 204.672 230.253 204.672 230.253C208.416 232.273 206.369 236.502 199.689 240.03C190.236 245.039 194.787 250.83 190.074 254.843C185.388 258.856 178.358 257.86 175.126 262.088C171.894 266.317 173.671 272.054 169.012 274.693C164.353 277.306 157.619 275.501 155.249 278.194C152.879 280.888 152.798 287.109 149.889 289.964C147.95 291.886 143.802 293.834 137.446 295.809L134.968 295.836C129.061 287.397 125.407 279.586 124.006 272.404V272.404Z" fill="#B9BC7E"/>
<path d="M152.825 246.925C161.713 240.389 176.293 235.218 196.565 231.411C196.565 231.411 194.123 232.174 189.239 233.701C181.94 235.99 157.538 242.454 145.122 256.109C136.863 265.213 133.72 277.207 135.695 292.092C132.194 275.393 134.564 260.365 152.825 246.925Z" fill="#FFFBF4"/>
<path d="M134.968 295.836C133.227 299.463 130.659 301.77 127.265 302.758C122.175 304.212 120.182 301.842 114.122 299.418C108.089 296.967 106.769 302.111 98.0965 303.323C92.3149 304.131 87.8978 304.006 84.8453 302.946C86.1561 298.475 90.3667 294.615 97.4771 291.365C104.587 288.115 114.903 288.348 128.423 292.065L134.968 295.836Z" fill="#9A9B82"/>
<path d="M138.416 292.792C142.061 288.591 146.514 286.634 151.775 286.921C159.693 287.325 161.094 290.099 164.972 290.261C168.85 290.449 170.978 289.21 176.284 291.015C179.767 292.218 182.542 293.636 184.606 295.27C181.033 300.459 176.446 302.381 170.843 301.034C162.467 299.014 156.138 297.721 153.391 300.522C151.577 302.39 144.925 301.617 133.433 298.206L138.416 292.792Z" fill="#9A9B82"/>
<path d="M250.297 239.383C250.97 228.422 253.286 224.112 255.872 225.836C258.458 227.56 260.828 237.875 264.06 237.848C267.265 237.821 264.922 231.223 263.844 223.116C262.767 215.036 269.635 205.178 273.082 206.686C276.53 208.195 275.668 224.328 280.193 223.008C284.718 221.688 281.917 213.554 282.132 208.41C282.347 203.239 290.751 194.836 293.363 196.129C295.976 197.421 292.232 211.615 295.249 211.184C298.265 210.753 296.541 202.162 298.05 197.852C299.558 193.543 306.884 189.018 309.685 191.173C312.486 193.327 306.884 203.023 310.116 203.239C313.348 203.454 313.563 196.559 316.553 192.466C319.569 188.372 328.188 187.079 332.066 189.449C335.945 191.819 321.078 198.068 325.387 200.653C329.696 203.239 337.022 194.836 344.967 194.97C352.94 195.105 358.111 198.93 359.592 203.023C361.101 207.117 342.597 205.609 343.028 208.41C343.459 211.184 357.034 211.831 359.188 213.77C361.343 215.709 354.879 221.527 348.846 220.234C342.813 218.941 330.989 218.079 332.928 221.311C334.867 224.543 353.155 225.836 354.448 227.56C355.741 229.283 350.785 236.582 340.901 234.482C330.989 232.381 319.569 231.223 321.724 234.482C323.879 237.767 346.045 238.522 346.691 240.892C347.338 243.262 343.675 250.372 334.571 249.079C325.468 247.787 304.298 242.831 307.746 247.571C311.193 252.311 338.53 253.173 338.315 256.459C338.099 259.772 331.851 264.566 322.801 264.566C313.779 264.566 303.221 257.914 295.679 258.775C288.165 259.637 292.232 263.058 307.53 265.859C322.801 268.66 326.68 270.384 325.387 273.508C324.094 276.632 314.21 283.312 290.751 279.218C275.093 276.489 263.467 272.682 255.872 267.798C254.795 265.105 249.623 250.372 250.297 239.383V239.383Z" fill="#D1C795"/>
<path d="M252.182 285.493C260.244 264.809 268.962 248.738 278.334 237.283C292.394 220.099 319.542 209.73 332.632 209.003C312.001 212.827 295.06 222.945 281.809 239.357C268.54 255.75 259.409 275.16 254.418 297.586L248.977 296.509L252.182 285.493Z" fill="#FFFBF4"/>
<path d="M33.1334 331.038C34.2825 326.746 37.6851 323.604 43.3411 321.611C51.7982 318.648 53.064 326.647 58.3968 326.324C61.952 326.109 64.5556 329.458 66.2075 336.37H31.248L33.1334 331.038Z" fill="#9A9B82"/>
<path d="M51.475 336.424C50.7208 332.734 49.3203 328.237 47.5966 323.415C33.5374 316.054 20.2592 305.532 7.76217 291.85C19.3076 293.484 28.5727 297.344 35.5574 303.431C38.4662 305.936 40.8632 308.683 42.8024 311.349C41.0787 307.255 39.2742 303.215 37.5235 299.391C26.2295 293.717 15.4831 285.215 5.2843 273.885C14.2621 275.214 21.4623 278.266 26.8848 283.042C29.4974 285.359 31.5982 287.89 33.2142 290.287C31.0864 285.87 29.3088 282.315 28.2315 280.241C20.4208 270.976 14.0197 259.925 9.02804 247.086C16.9464 251.521 22.5935 256.935 25.9691 263.327C29.3088 269.63 30.2246 276.067 30.44 279.73C31.7867 282.342 33.9683 286.705 36.5 292.011C34.6147 280.861 34.3364 269.405 35.6651 257.644C40.6208 265.257 43.1077 272.673 43.1256 279.891C43.1526 287.729 40.5131 294.327 39.0587 297.398C42.4792 304.831 46.223 313.315 49.1048 321.153C46.3217 306.573 45.7741 291.356 47.4619 275.501C53.872 285.215 57.122 294.705 57.2118 303.97C57.3195 315.416 52.9832 324.897 51.448 327.859C52.3638 330.822 53.1179 333.569 53.6296 335.993L51.475 336.424Z" fill="#B9BC7E"/>
<path d="M325.064 307.525C323.798 298.287 324.875 291.015 328.996 293.546C339.258 299.903 330.397 315.497 335.46 313.127C340.523 310.757 339.527 292.173 346.368 284.578C353.209 276.982 367.645 272.404 365.868 278.76C364.09 285.089 358.515 294.974 351.431 299.014C344.321 303.081 342.301 315.497 345.587 315.713C348.9 315.901 350.92 305.101 358.515 300.549C366.137 295.97 371.201 294.22 370.689 297.64C370.177 301.061 368.911 308.414 357.249 314.474C349.474 318.532 343.989 323.523 340.793 329.449H330.127C332.686 321.072 326.33 316.763 325.064 307.525V307.525Z" fill="#9A9B82"/>
<path d="M320.728 323.658C327.192 321.799 334.598 324.223 338.665 327.536C342.732 330.876 343.675 325.328 352.913 327.536C359.09 329.027 363.228 331.747 365.329 335.697C361.63 336.559 354.969 336.99 345.345 336.99C335.72 336.99 324.678 336.308 312.217 334.943C313.563 328.658 316.4 324.897 320.728 323.658V323.658Z" fill="#D7CA8C"/>
<path d="M304.972 342.807C304.972 347.871 254.929 351.965 193.198 351.965C131.494 351.965 81.4518 347.871 81.4518 342.807C81.4518 337.744 131.494 333.65 193.198 333.65C254.929 333.65 304.972 337.744 304.972 342.807Z" fill="#E2C9B5"/>
<path d="M297.188 292.281L288.704 301.222C288.704 301.222 288.695 301.231 288.677 301.249L287.088 302.919C287.088 302.937 287.088 302.946 287.088 302.946L286.98 303.054C286.98 303.027 286.953 303.027 286.953 303.027C268.611 291.688 250.943 274.801 246.472 270.438C244.21 268.391 242.055 265.913 240.385 262.977C236.48 256.028 231.174 243.1 227.511 233.647L227.026 235.694L220.374 263.812C223.229 268.148 227.107 274.828 230.42 283.069C232.117 287.244 233.652 291.823 234.837 296.698L196.726 319.133V319.699L196.215 319.429L195.703 319.726V319.16L156.73 298.206C157.996 292.038 159.828 286.301 161.821 281.265C161.848 281.184 161.875 281.103 161.902 281.022C164.622 274.208 167.638 268.606 169.928 264.782L162.09 236.502L161.04 232.677L160.474 230.63C156.757 239.895 149.889 256.378 145.095 264.485C143.371 267.394 141.19 269.818 138.847 271.838C134.322 276.094 116.277 292.658 97.7464 303.673L96.0496 301.815L87.7542 292.712L130.013 252.958L144.287 212.154C149.764 200.375 154.558 194.405 158.67 194.243V194.27C159.801 193.301 161.094 192.493 162.548 191.927C163.033 191.738 163.518 191.55 164.002 191.361V191.334C166.777 190.203 169.901 188.722 173.025 186.89C176.715 184.736 180.405 182.016 183.556 178.676C184.014 175.525 184.202 171.054 184.256 168.172C184.274 167.005 184.283 166.035 184.283 165.263L193.279 166.179L202.221 164.913C202.275 166.457 202.373 168.208 202.517 170.165C202.706 172.804 203.002 175.929 203.46 178.299C204.914 179.726 206.476 181.046 208.092 182.204C213.748 186.352 220.024 189.018 224.953 190.742C226.218 191.173 227.377 191.792 228.454 192.546C229.72 192.87 235.295 195.105 242.19 210.673L255.683 251.746L297.188 292.281Z" fill="#5E4453"/>
<path d="M208.092 182.204C206.665 183.847 202.221 187.321 189.697 190.203C178.385 192.807 169.82 193.193 164.002 191.361V191.334C166.777 190.203 169.901 188.722 173.025 186.89C176.715 184.736 180.405 182.015 183.556 178.676C184.014 175.525 184.202 171.054 184.256 168.172L202.517 170.165C202.706 172.804 203.002 175.929 203.46 178.299C204.914 179.726 206.476 181.046 208.092 182.204V182.204Z" fill="#3F2935"/>
<path d="M217.654 242.858C211.701 245.497 201.305 240.38 192.471 243.235C183.637 246.09 179.247 254.251 177.55 264.728C176.401 271.694 177.29 280.241 180.216 290.368C174.955 291.823 168.85 288.707 161.902 281.022C164.622 274.208 167.638 268.606 169.928 264.782L161.04 232.677L160.474 230.63C159.056 223.322 160.124 216.876 163.679 211.292C162.566 217.253 163.051 222.963 165.134 228.422C168.231 236.582 175.557 236.582 183.206 236.394C190.855 236.205 190.747 233.593 199.393 235.451C213.802 238.549 219.431 237.148 222.798 232.408C225.006 229.31 223.606 240.218 217.654 242.858V242.858Z" fill="#3F2935"/>
<path d="M179.354 164.482C177.056 165.757 174.641 164.904 172.109 161.923C168.312 157.452 169.201 151.688 171.894 151.527C173.689 151.419 175.27 152.757 176.634 155.54L179.354 164.482Z" fill="#EA8D78"/>
<path d="M210.435 154.894C211.692 152.057 213.219 150.665 215.014 150.719C217.707 150.773 218.839 156.483 215.203 161.088C212.797 164.177 210.417 165.128 208.065 163.943L210.435 154.894Z" fill="#EA8D78"/>
<path d="M211.647 146.275C211.971 162.947 202.005 177.868 194.087 178.029C184.499 178.218 175.207 162.543 174.91 146.975C174.695 135.475 181.59 126.021 193.09 125.779C204.591 125.563 211.405 134.774 211.647 146.275V146.275Z" fill="#FFA488"/>
<path d="M185.872 144.955C187.937 144.919 189.203 145.584 189.67 146.948C188.772 146.697 187.093 146.661 184.633 146.841C182.694 146.984 180.827 147.307 179.031 147.81C181.545 145.943 183.825 144.991 185.872 144.955Z" fill="#2F2A00"/>
<path d="M183.987 153.52C181.347 153.412 179.776 153.08 179.274 152.523C180.925 150.405 182.676 149.354 184.526 149.372C186.375 149.408 188.027 150.396 189.481 152.335C188.53 153.251 186.698 153.646 183.987 153.52V153.52Z" fill="#EA8D78"/>
<path d="M189.481 152.335C188.44 153.538 186.77 154.157 184.472 154.193C182.075 154.22 180.728 153.547 179.974 153.035C179.624 153.089 178.87 153.197 177.873 152.901C178.519 152.847 178.995 152.721 179.301 152.523C179.283 152.523 179.274 152.523 179.274 152.523C179.292 152.523 179.301 152.523 179.301 152.523L179.327 152.55C179.705 152.658 181.832 153.305 184.445 153.278C186.366 153.26 188.045 152.945 189.481 152.335V152.335Z" fill="#2F2A00"/>
<path d="M207.365 147.271C205.552 146.823 203.666 146.571 201.709 146.517C199.267 146.428 197.597 146.526 196.699 146.814C197.13 145.431 198.369 144.713 200.416 144.659C202.481 144.623 204.797 145.494 207.365 147.271V147.271Z" fill="#2F2A00"/>
<path d="M197.104 152.173C198.468 150.18 200.075 149.139 201.925 149.049C203.774 148.959 205.561 149.938 207.284 151.985C206.8 152.559 205.246 152.954 202.625 153.17C199.932 153.385 198.091 153.053 197.104 152.173V152.173Z" fill="#EA8D78"/>
<path d="M206.611 152.523C205.884 153.062 204.564 153.789 202.167 153.843C199.869 153.915 198.181 153.358 197.104 152.173C198.558 152.748 200.246 153.008 202.167 152.954C204.78 152.874 206.88 152.146 207.23 152.012L207.284 151.985C207.608 152.164 208.083 152.272 208.712 152.308C207.742 152.658 206.961 152.577 206.611 152.523V152.523Z" fill="#2F2A00"/>
<path d="M193.764 162.085C194.662 162.103 195.487 162.148 196.242 162.219C195.272 162.974 194.392 163.333 193.602 163.297C192.794 163.243 191.896 162.92 190.909 162.327C191.914 162.13 192.866 162.049 193.764 162.085V162.085Z" fill="#EA8D78"/>
<path d="M194.248 167.498C194.177 167.498 194.114 167.498 194.06 167.498C193.988 167.498 193.925 167.507 193.871 167.525C193.871 167.507 193.871 167.498 193.871 167.498C191.878 167.463 190.235 167.157 188.943 166.583C191.061 166.26 192.399 166.143 192.956 166.233C193.467 166.313 193.845 166.798 194.033 167.121C194.249 166.771 194.599 166.286 195.11 166.179C195.649 166.089 196.987 166.152 199.123 166.367C197.849 166.996 196.215 167.373 194.222 167.498C194.24 167.498 194.248 167.498 194.248 167.498V167.498Z" fill="#743F3D"/>
<path d="M189.858 167.849C190.289 168.441 191.277 168.926 192.821 169.303C195.137 169.869 196.834 168.899 198.235 168.01C197.391 169.626 196.098 170.542 194.356 170.757C191.717 171.081 189.966 168.199 189.858 167.849V167.849Z" fill="#EA8D78"/>
<path d="M200.47 135.663C197.813 134.263 194.688 133.652 191.097 133.832C185.711 134.101 181.509 138.303 179.947 141.292C178.906 143.285 177.855 144.56 176.796 145.117C177.137 149.947 176.841 153.385 175.907 155.432C174.668 153.349 173.33 152.048 171.894 151.527C170.673 147.128 170.439 142.594 171.194 137.926C172.325 130.896 179.758 123.355 189.778 122.304C196.439 121.622 201.458 122.906 204.833 126.156C209.268 128.652 212.15 132.018 213.479 136.256C214.79 140.511 214.879 145.395 213.748 150.907C212.617 151.482 211.683 152.766 210.947 154.759C208.811 151.545 208.011 148.133 208.55 144.524C207.688 138.779 204.995 135.825 200.47 135.663V135.663Z" fill="#743F3D"/>
<path d="M206.422 129.738C205.094 130.169 200.111 128.05 191.474 123.382C191.421 122.61 191.519 121.739 191.771 120.769C192.282 118.749 193.602 116.083 197.05 114.844C197.642 114.628 198.217 114.476 198.773 114.386C203.972 113.497 208.281 117.052 209.52 120.661C210.893 124.701 208.442 129.118 206.422 129.738Z" fill="#743F3D"/>
<path d="M189.67 146.948C190.496 148.51 191.151 150.485 191.636 152.874C192.103 155.244 192.139 157.282 191.744 158.987C191.277 152.254 189.329 148.178 185.899 146.76C187.785 146.724 189.041 146.787 189.67 146.948V146.948Z" fill="#EA8D78"/>
<path d="M182.371 139.488C180.845 140.691 179.74 141.229 179.058 141.104L179.543 142.019C183.341 141.723 183.206 138.276 188.646 135.906C192.273 134.326 196.215 134.245 200.47 135.663C189.535 131.138 184.687 137.683 182.371 139.488V139.488Z" fill="#743F3D"/>
<path d="M172.648 342.188C168.357 341.865 164.828 342.412 162.063 343.831C157.889 345.932 150.186 353.931 149.081 354.389C147.95 354.847 146.981 355.062 145.122 355.197C143.291 355.305 143.991 355.493 143.183 355.87C142.626 356.104 141.702 356.184 140.409 356.113C140.068 356.956 139.646 357.45 139.143 357.594C138.389 357.809 137.5 358.402 136.692 356.597C135.884 354.82 137.419 352.638 137.365 351.857C137.311 351.103 137.365 347.494 139.762 345.016C142.133 342.538 148.839 338.337 150.563 334.35C152.313 330.391 153.983 326.755 157.054 326.621C159.101 326.531 162.557 326.836 167.423 327.536C168.644 327.303 170.996 326.962 174.479 326.513L172.648 342.188Z" fill="#FFA488"/>
<path d="M292.528 331.926C280.112 338.875 259.562 341.622 235.753 343.05C232.844 343.229 229.899 343.391 226.919 343.535L227.323 353.85C226.12 353.85 224.45 353.832 222.313 353.796C212.482 353.689 189.589 353.392 165.726 352.907C127.131 352.153 96.3997 342.565 87.5386 334.027C83.2562 329.906 80.7245 323.335 81.6402 317.194C82.3405 312.319 85.2224 307.74 91.1208 304.831C92.5213 304.158 94.9722 303.269 98.285 302.327C108.654 299.364 127.427 295.782 148.139 295.566C148.462 295.539 148.785 295.539 149.081 295.513C150.895 292.783 155.168 287.953 161.902 281.022C166.642 284.991 172.244 288.16 178.708 290.53C183.825 292.388 189.697 293.6 195.622 292.9C207.042 291.517 218.497 287.639 229.989 281.265C232.305 283.581 234.577 287.45 236.803 292.873C253.96 293.035 282.374 298.233 288.488 301.303C288.524 301.339 288.56 301.366 288.596 301.384C292.744 302.488 296.191 304.912 298.561 307.983C304.056 315.093 303.706 325.705 292.528 331.926Z" fill="#EAA486"/>
<path d="M96.0496 301.815C88.7596 307.381 84.1899 310.452 82.3405 311.026C79.5933 311.861 77.1693 311.915 74.2605 311.619C71.3248 311.322 70.3552 312.238 70.1666 310.891C70.0589 310.012 71.7826 309.356 75.3378 308.925C74.8261 308.925 71.7557 308.441 69.4933 308.494C67.204 308.521 64.8338 307.875 65.992 306.932C66.7641 306.286 69.1521 305.99 73.1562 306.043C71.8096 306.205 69.7357 305.559 67.5002 305.37C65.2648 305.155 62.4368 305.101 63.8642 303.808C64.7979 302.928 66.8359 302.668 69.9781 303.027C68.3441 302.201 67.5182 301.312 67.5002 300.361C67.4733 298.933 68.8738 296.832 69.6549 294.624C70.4629 292.442 71.1093 292.334 71.5402 293.708C71.9442 295.082 70.3282 298.771 70.5976 299.31C70.8669 299.849 72.3482 300.414 76.1458 299.741C78.6776 299.31 80.3385 298.044 81.1285 295.943C80.949 295.495 80.4731 295.27 79.701 295.27C78.5429 295.297 76.6576 295.89 74.476 295.566C72.2944 295.27 71.648 294.543 71.5941 294.247C71.5402 293.95 72.5098 293.897 74.5029 293.546C76.469 293.223 79.9704 292.119 81.6941 292.065C82.8433 292.047 84.8543 292.263 87.7272 292.711L96.0496 301.815Z" fill="#FFA488"/>
<path d="M272.221 305.774C257.012 307.929 228.113 314.456 185.522 325.355C163.096 315.084 144.368 308.746 129.339 306.34C107.9 302.919 95.4032 304.616 98.2851 302.327C108.654 299.364 127.427 295.782 148.139 295.566C148.462 295.539 148.785 295.539 149.081 295.513C150.895 292.783 155.168 287.953 161.902 281.022C166.642 284.991 172.244 288.16 178.708 290.53C179.489 294.301 192.956 312.804 202.652 309.76C212.348 306.717 225.06 302.542 231.147 304.643C237.234 306.717 249.597 305.586 258.108 303.673C263.781 302.398 268.486 303.099 272.221 305.774V305.774Z" fill="#E79A79"/>
<path d="M288.704 301.222C288.704 301.222 288.695 301.231 288.677 301.249C288.623 301.411 288.192 302.246 287.088 302.919C287.088 302.937 287.088 302.946 287.088 302.946C287.034 302.964 286.989 302.991 286.953 303.027C268.612 291.688 250.943 274.801 246.472 270.438C244.21 268.391 242.055 265.913 240.385 262.977C236.48 256.028 231.174 243.1 227.511 233.647L229.612 215.978C234.909 238.746 240.34 253.793 245.907 261.119C251.491 268.462 265.757 281.83 288.704 301.222V301.222Z" fill="#3F2935"/>
<path d="M162.09 236.502L161.04 232.677L160.474 230.63C156.757 239.895 149.889 256.378 145.095 264.485C143.371 267.394 141.19 269.818 138.847 271.838C134.322 276.094 116.276 292.658 97.7464 303.673L96.0496 301.815C120.397 281.022 136.144 266.532 143.291 258.345C150.437 250.175 156.21 237.175 160.609 219.345L162.09 236.502Z" fill="#3F2935"/>
<path d="M292.528 331.926C280.112 338.875 259.562 341.622 235.753 343.05C229.109 341.973 223.417 340.141 218.677 337.555V336.37L185.549 325.355C185.747 325.409 187.659 324.924 191.286 323.9C206.369 327.267 243.537 337.394 262.902 332.95C287.788 327.24 288.731 316.763 293.309 311.565C295.087 309.518 296.945 308.494 298.561 307.983C304.056 315.093 303.706 325.705 292.528 331.926V331.926Z" fill="#E79A79"/>
<path d="M218.677 337.555C222.161 338.058 224.504 338.444 225.707 338.714C230.591 338.103 234.056 337.861 236.103 337.986C239.173 338.175 240.789 341.865 242.432 345.851C244.075 349.864 250.728 354.2 253.044 356.732C255.36 359.237 255.36 362.873 255.306 363.627C255.226 364.381 256.734 366.59 255.872 368.367C255.037 370.145 254.175 369.525 253.421 369.31C252.918 369.166 252.496 368.672 252.155 367.829C250.862 367.864 249.947 367.757 249.408 367.505C248.6 367.128 249.3 366.967 247.469 366.805C245.637 366.643 244.641 366.401 243.537 365.916C242.432 365.431 234.891 357.298 230.77 355.089C228.023 353.617 224.504 353.006 220.212 353.258L218.677 337.555Z" fill="#FFA488"/>
<path d="M297.188 292.281C300.079 291.886 302.099 291.715 303.248 291.769C304.971 291.823 308.446 293.008 310.412 293.385C312.378 293.762 313.375 293.843 313.321 294.139C313.24 294.435 312.567 295.135 310.385 295.405C308.203 295.674 306.345 295.055 305.187 295.001C304.415 294.983 303.93 295.198 303.733 295.647C304.487 297.748 306.121 299.05 308.634 299.553C312.432 300.28 313.94 299.741 314.21 299.229C314.479 298.691 312.917 294.947 313.375 293.6C313.833 292.227 314.479 292.334 315.233 294.543C315.987 296.751 317.334 298.879 317.28 300.334C317.244 301.285 316.4 302.156 314.748 302.946C317.89 302.641 319.928 302.937 320.862 303.835C322.236 305.182 319.435 305.155 317.199 305.316C314.964 305.478 312.863 306.097 311.516 305.909C315.52 305.927 317.899 306.259 318.654 306.905C319.812 307.902 317.415 308.494 315.125 308.414C312.863 308.333 309.766 308.764 309.281 308.737C312.836 309.24 314.542 309.931 314.398 310.811C314.21 312.13 313.24 311.215 310.331 311.457C307.395 311.673 304.971 311.592 302.224 310.703C300.393 310.092 295.886 306.932 288.704 301.222L297.188 292.281Z" fill="#FFA488"/>
<path d="M222.313 353.796C212.482 353.689 189.589 353.392 165.726 352.907C127.131 352.153 96.3997 342.565 87.5386 334.027C83.2562 329.906 80.7245 323.335 81.6402 317.194C84.8992 319.726 91.2016 324.143 103.241 330.149C122.983 340.06 159.478 345.366 188.377 348.167C207.643 350.017 218.138 350.537 219.862 349.729L222.313 353.796Z" fill="#E79A79"/>
<path d="M202.032 125.24C199.447 123.983 196.098 122.96 191.986 122.17C191.878 121.685 191.807 121.218 191.771 120.769C192.282 118.749 193.602 116.083 197.05 114.844C197.642 114.628 198.217 114.476 198.773 114.386C198.127 115.032 197.454 116.298 198.046 118.372C199.07 121.873 205.938 127.152 202.032 125.24V125.24Z" fill="#603030"/>
<path d="M198.423 132.512C193.629 130.699 188.934 130.699 184.337 132.512C177.469 135.232 176.499 142.558 174.91 143.285C175.826 136.732 178.753 132.736 183.691 131.3C188.61 129.864 193.521 130.268 198.423 132.512V132.512Z" fill="#603030"/>
<path d="M203.864 127.96L201.143 134.101C203.621 132.97 204.528 130.923 203.864 127.96Z" fill="#603030"/>
<path d="M217.625 156.81C217.474 160.494 215.431 166.563 209.393 165.354C208.916 164.755 209.697 161.003 210.096 157.667C210.494 154.331 209.683 148.677 210.295 148.511C216.487 147.875 217.776 153.125 217.625 156.81Z" fill="#33607C"/>
<path d="M169.082 157.101C169.516 160.771 172.079 166.703 178.205 165.112C178.651 164.484 177.305 162.033 176.9 157.48C176.496 152.927 177.13 147.712 176.209 147.716C169.786 147.474 168.648 153.43 169.082 157.101Z" fill="#33607C"/>
<path d="M174.279 150.8C172.69 142.585 174.855 116.186 194.158 117.019C215.342 117.932 214.038 145.322 212.299 151.253" stroke="#33607C" stroke-width="2"/>
<path d="M211.291 164.491C212.375 159.927 213.098 157.188 212.014 149.428" stroke="#33607C" stroke-width="2" stroke-linecap="round" stroke-linejoin="round"/>
<path d="M176.229 164.491C174.783 160.383 174.06 153.993 175.144 148.971" stroke="#33607C" stroke-width="2" stroke-linecap="round" stroke-linejoin="round"/>
<path d="M46 390.5C46 388.567 47.567 387 49.5 387V387C51.433 387 53 388.567 53 390.5V400H46V390.5Z" fill="#33607C"/>
<mask id="mask0_28_27" style="mask-type:alpha" maskUnits="userSpaceOnUse" x="46" y="164" width="169" height="246">
<path d="M108.447 410C84.7604 410 79.9153 407.86 46 387.745C46 356.074 141.286 169.045 145.593 165.621C149.899 162.198 170.356 165.193 182.738 165.621C195.12 166.049 214.5 262.774 214.5 331.251C214.5 399.728 132.134 410 108.447 410Z" fill="#C4C4C4"/>
</mask>
<g mask="url(#mask0_28_27)">
<path d="M48.8702 397C48.8696 392.647 46.0755 377.826 57.2971 378.261C68.5187 378.696 73.9928 397.871 93.7693 396.565C113.546 395.259 127.442 352.597 141.873 345.196C156.305 337.796 170.936 344.326 178.754 331.701C190.702 312.408 174.446 184.42 174.446 158.93C174.446 133.44 174.446 12 174.446 12" stroke="#33607C" stroke-width="2"/>
</g>
</g>
<defs>
<clipPath id="clip0_28_27">
<rect width="404" height="404" fill="white" transform="translate(-14)"/>
</clipPath>
</defs>
</svg>
