<svg width="53" height="51" viewBox="0 0 53 51" fill="none" xmlns="http://www.w3.org/2000/svg">
<ellipse cx="26.3438" cy="25.0028" rx="26.0204" ry="25" fill="#F7E4D2"/>
<mask id="mask0_123_27" style="mask-type:alpha" maskUnits="userSpaceOnUse" x="0" y="0" width="53" height="51">
<ellipse cx="26.3438" cy="25.0028" rx="26.0204" ry="25" fill="#FFEDCB"/>
</mask>
<g mask="url(#mask0_123_27)">
<path d="M28.35 5.16124C21.8785 -1.33849 17.0607 6.67948 17.7326 14.967C18.3741 22.8713 25.6246 50.1677 24.2509 61.3958H26.8155C33.3002 46.9534 36.67 13.5205 28.35 5.16124Z" fill="#9A9B82"/>
<path d="M25.9456 61.3928C32.5008 38.4653 25.1007 12.6147 25.0733 12.5061C25.0233 12.3098 24.8158 12.1884 24.6102 12.2367C24.4051 12.2838 24.2788 12.4828 24.3282 12.6791C24.3556 12.7868 31.767 38.6758 25.1614 61.3928H25.9456Z" fill="#D1C795"/>
<path d="M9.42845 15.9683C2.04195 12.1203 0.180026 20.5154 3.05933 27.46C5.4608 33.253 16.1247 50.4592 20.0502 61.3884H23.7247C24.1032 46.3002 18.1877 20.5297 9.42845 15.9683Z" fill="#D1C795"/>
<path d="M22.2945 61.391C19.9504 40.9186 6.19162 18.5758 6.14233 18.4951C6.04679 18.3385 5.84302 18.2888 5.6855 18.3833C5.52949 18.4774 5.47868 18.6817 5.5737 18.8373C5.62249 18.9185 19.2918 41.1175 21.6328 61.391H22.2945Z" fill="#5E4453"/>
<path d="M42.4697 20.2333C50.7632 16.6633 52.0776 25.8968 48.3923 33.1809C45.8815 38.1466 36.7794 50.9202 30.7286 61.7068H23.9271C26.2467 45.437 33.8538 23.9423 42.4697 20.2333Z" fill="#9A9B82"/>
<path d="M26.3503 61.7007C32.1985 41.936 45.8701 23.2396 45.9249 23.1652C46.0417 23.0037 46.2687 22.9671 46.432 23.0822C46.5958 23.1972 46.6345 23.4222 46.5178 23.5819C46.4635 23.6569 32.9344 42.1593 27.0993 61.7007H26.3503Z" fill="#D1C795"/>
<path d="M45.4142 31.4652C51.4201 30.7618 50.4445 36.6635 46.5959 40.5411C42.9248 44.2391 27.7169 55.0296 23.6505 61.1813L22.3616 60.1727C25.2212 50.4047 37.6916 32.3709 45.4142 31.4652Z" fill="#B9BC7E"/>
<path d="M32.0394 25.146C36.4202 21.98 38.4374 27.0354 37.2459 31.7531C36.109 36.2525 29.264 51.3385 28.9738 57.9353L27.487 57.7049C25.1251 48.7959 26.4069 29.218 32.0394 25.146Z" fill="#B9BC7E"/>
<path d="M19.0638 8.12549C12.1935 3.16044 9.03003 11.0886 10.8987 18.4871C12.6815 25.5433 23.4162 49.2019 23.8713 59.5473L26.203 59.1861C29.9071 45.2145 27.8969 14.5114 19.0638 8.12549Z" fill="#B9BC7E"/>
<ellipse cx="26.4883" cy="24.8597" rx="8.66813" ry="8.32821" fill="white"/>
<path d="M3.96125 28.4024C-2.57073 27.6374 -1.50966 34.0561 2.67612 38.2734C6.66872 42.2953 23.2088 54.031 27.6314 60.7215L29.0331 59.6246C25.9231 49.001 12.3604 29.3875 3.96125 28.4024Z" fill="#B9BC7E"/>
<path d="M26.6612 57.2086C20.0048 43.3724 5.6187 33.1568 5.55996 33.1125C5.45363 33.0327 5.30567 33.0476 5.23051 33.1466C5.15499 33.2448 5.18049 33.3901 5.28658 33.4702C5.34494 33.514 19.7525 43.7447 26.2963 57.4941L26.6612 57.2086Z" fill="white"/>
<path d="M22.8343 60.5487C29.4906 46.7125 43.8768 36.4969 43.9355 36.4526C44.0418 36.3728 44.1898 36.3877 44.265 36.4867C44.3405 36.5848 44.315 36.7302 44.2089 36.8102C44.1505 36.854 29.7429 47.0847 23.1991 60.8341L22.8343 60.5487Z" fill="white"/>
<path d="M28.0358 57.7931C26.7349 44.0395 33.2062 29.7623 33.2314 29.702C33.2772 29.5931 33.4003 29.5404 33.506 29.5854C33.6115 29.6295 33.66 29.7547 33.6145 29.8636C33.5894 29.9234 27.1084 44.2218 28.4567 57.8584L28.0358 57.7931Z" fill="white"/>
<path d="M25.3373 59.3198C27.3776 37.7506 17.229 15.3603 17.1894 15.2657C17.1176 15.0949 16.9245 15.0123 16.7588 15.0828C16.5933 15.152 16.5172 15.3483 16.5886 15.5192C16.628 15.613 26.7919 38.0364 24.6773 59.422L25.3373 59.3198Z" fill="white"/>
</g>
</svg>
